<svg width="216" height="48" viewBox="0 0 216 48" fill="none" xmlns="http://www.w3.org/2000/svg">
<rect x="168" width="48" height="48" fill="#323238"/>
<g clip-path="url(#clip0_61385:204)">
<path d="M204.685 16.8454C203.76 17.236 202.78 17.4936 201.777 17.6099C202.835 17.0044 203.627 16.0518 204.005 14.9295C203.012 15.4966 201.923 15.8957 200.788 16.1093C200.095 15.3978 199.193 14.9025 198.201 14.6882C197.208 14.4739 196.172 14.5504 195.225 14.9078C194.279 15.2652 193.468 15.8869 192.897 16.6917C192.326 17.4966 192.022 18.4472 192.025 19.4196C192.023 19.7917 192.067 20.1627 192.156 20.525C190.14 20.4295 188.167 19.9287 186.368 19.0552C184.568 18.1817 182.981 16.9551 181.711 15.4557C181.063 16.5232 180.865 17.7866 181.158 18.9887C181.451 20.1907 182.212 21.2409 183.286 21.9253C182.479 21.9062 181.688 21.6984 180.984 21.3201V21.3803C180.984 22.4996 181.389 23.5845 182.13 24.4508C182.872 25.3171 183.904 25.9112 185.052 26.1322C184.617 26.2449 184.169 26.3021 183.718 26.3021C183.399 26.3027 183.08 26.2726 182.766 26.2124C183.09 27.1751 183.72 28.017 184.569 28.6202C185.418 29.2235 186.443 29.5581 187.501 29.577C185.707 30.9253 183.489 31.6563 181.206 31.6521C180.802 31.6517 180.399 31.6284 179.998 31.5825C182.305 33.0171 184.999 33.778 187.75 33.7721C189.649 33.7848 191.531 33.4367 193.287 32.7481C195.043 32.0595 196.639 31.0441 197.981 29.7609C199.323 28.4776 200.385 26.9522 201.105 25.2733C201.825 23.5944 202.188 21.7955 202.174 19.9811C202.174 19.7711 202.174 19.5611 202.158 19.3559C203.15 18.6691 204.005 17.819 204.685 16.8454V16.8454Z" fill="white"/>
</g>
<rect x="112" width="48" height="48" fill="#323238"/>
<path d="M148.146 24.0731C148.146 17.4046 142.742 12 136.073 12C129.405 12 124 17.4046 124 24.0731C124 30.1002 128.414 35.0945 134.187 36V27.563H131.121V24.0731H134.187V21.4132C134.187 18.3879 135.988 16.7161 138.747 16.7161C140.068 16.7161 141.449 16.9519 141.449 16.9519V19.923H139.926C138.426 19.923 137.96 20.8544 137.96 21.8094V24.0731H141.308L140.773 27.563H137.96V36C143.732 35.0945 148.146 30.1002 148.146 24.0731Z" fill="white"/>
<rect width="48" height="48" fill="#323238"/>
<g clip-path="url(#clip1_61385:204)">
<path d="M36.5252 18.8108C36.5697 17.7824 36.219 16.7777 35.5499 16.0172C34.8808 15.2566 33.9481 14.8023 32.9563 14.754C30.285 14.6242 27.5607 14.5711 24.7783 14.5711H23.9108C21.1336 14.5711 18.4041 14.6214 15.7328 14.754C14.7408 14.8056 13.8089 15.2624 13.1409 16.0246C12.4729 16.7867 12.1232 17.7921 12.1683 18.8208C12.0484 20.6043 11.9946 22.3804 11.9999 24.1611C12.0052 25.9418 12.0484 27.7206 12.1639 29.5059C12.1169 30.5362 12.4655 31.5438 13.1333 32.3083C13.8012 33.0727 14.734 33.5317 15.7275 33.5847C18.5337 33.7199 21.4131 33.7794 24.3401 33.7748C27.2719 33.7845 30.1428 33.7212 32.9528 33.5847C33.9464 33.5326 34.8796 33.0746 35.5482 32.3109C36.2169 31.5471 36.5666 30.5399 36.5208 29.5095C36.6363 27.7243 36.6892 25.9445 36.6848 24.1602C36.6942 22.377 36.641 20.5939 36.5252 18.8108ZM21.9782 29.0653V19.2413L28.9705 24.151L21.9782 29.0653Z" fill="white"/>
</g>
<rect x="56" width="48" height="48" fill="#323238"/>
<g clip-path="url(#clip2_61385:204)">
<path d="M78.724 35.9999C77.617 35.9999 76.324 35.9939 75.048 35.9209C73.1811 35.9629 71.3729 35.2669 70.016 33.9839C68.7328 32.6275 68.0367 30.8196 68.079 28.9529C68 27.5099 68 26.0509 68 24.6399C68 24.4265 68 24.2132 68 23.9999C68 23.7865 68 23.5732 68 23.3599C68 21.9489 68 20.4899 68.079 19.0479C68.037 17.1809 68.733 15.3728 70.016 14.0159C71.3729 12.7329 73.1811 12.0369 75.048 12.0789C76.328 12.0059 77.617 11.9999 78.724 11.9999H81.277C82.384 11.9999 83.677 12.0059 84.954 12.0789C86.8207 12.0366 88.6286 12.7327 89.985 14.0159C91.268 15.3728 91.964 17.1809 91.922 19.0479C92 20.4899 92 21.9489 92 23.3609C92 23.5742 92 23.7875 92 24.0009C92 24.2142 92 24.4272 92 24.6399C92 26.0509 92 27.5099 91.921 28.9539C91.9633 30.8206 91.2672 32.6285 89.984 33.9849C88.6276 35.2681 86.8197 35.9642 84.953 35.9219C83.672 35.9949 82.383 36.0009 81.276 36.0009L78.724 35.9999Z" fill="white"/>
<path d="M85.6061 18.7885C85.8425 18.9465 86.1206 19.0308 86.405 19.0308L86.406 19.0318C86.7873 19.0313 87.1528 18.8795 87.4222 18.6097C87.6916 18.3399 87.843 17.9741 87.843 17.5928C87.843 17.3084 87.7586 17.0304 87.6006 16.7939C87.4426 16.5575 87.218 16.3731 86.9553 16.2643C86.6925 16.1555 86.4034 16.127 86.1244 16.1825C85.8455 16.238 85.5893 16.3749 85.3882 16.576C85.1871 16.7771 85.0501 17.0334 84.9946 17.3123C84.9391 17.5913 84.9676 17.8804 85.0764 18.1431C85.1853 18.4059 85.3696 18.6305 85.6061 18.7885Z" fill="#323238"/>
<path fill-rule="evenodd" clip-rule="evenodd" d="M80.0003 30.1555C78.7828 30.1553 77.5927 29.7941 76.5805 29.1176C75.5682 28.441 74.7794 27.4795 74.3136 26.3546C73.8478 25.2298 73.726 23.992 73.9637 22.798C74.2013 21.6039 74.7877 20.5071 75.6487 19.6462C76.5097 18.7854 77.6066 18.1992 78.8007 17.9618C79.9948 17.7243 81.2325 17.8463 82.3573 18.3122C83.4821 18.7782 84.4435 19.5672 85.1199 20.5796C85.7963 21.5919 86.1573 22.782 86.1573 23.9995C86.1557 25.632 85.5065 27.1971 84.3522 28.3514C83.1979 29.5058 81.6327 30.154 80.0003 30.1555ZM80.0002 20.0001C79.2091 20.0001 78.4357 20.2347 77.7779 20.6742C77.1201 21.1137 76.6075 21.7384 76.3047 22.4693C76.002 23.2002 75.9227 24.0045 76.0771 24.7804C76.2314 25.5563 76.6124 26.2691 77.1718 26.8285C77.7312 27.3879 78.4439 27.7689 79.2199 27.9232C79.9958 28.0775 80.8001 27.9983 81.531 27.6956C82.2619 27.3928 82.8866 26.8801 83.3261 26.2223C83.7656 25.5645 84.0002 24.7912 84.0002 24.0001C84.0002 22.9392 83.5788 21.9218 82.8286 21.1716C82.0785 20.4215 81.0611 20.0001 80.0002 20.0001Z" fill="#323238"/>
</g>
<defs>
<clipPath id="clip0_61385:204">
<rect width="24.6857" height="19.2" fill="white" transform="translate(180 14.5711)"/>
</clipPath>
<clipPath id="clip1_61385:204">
<rect width="24.6857" height="19.2" fill="white" transform="translate(12 14.5711)"/>
</clipPath>
<clipPath id="clip2_61385:204">
<rect width="24" height="24" fill="white" transform="translate(68 11.9999)"/>
</clipPath>
</defs>
</svg>
